<mxfile host="Electron" modified="2024-09-22T21:21:27.731Z" agent="Mozilla/5.0 (Windows NT 10.0; Win64; x64) AppleWebKit/537.36 (KHTML, like Gecko) draw.io/22.0.3 Chrome/114.0.5735.289 Electron/25.8.4 Safari/537.36" etag="5cQxc8ry4nMrEwOp6sSj" version="22.0.3" type="device">
  <diagram id="C5RBs43oDa-KdzZeNtuy" name="Page-1">
    <mxGraphModel dx="2953" dy="2083" grid="1" gridSize="10" guides="1" tooltips="1" connect="1" arrows="1" fold="1" page="1" pageScale="1" pageWidth="827" pageHeight="1169" math="0" shadow="0">
      <root>
        <mxCell id="WIyWlLk6GJQsqaUBKTNV-0" />
        <mxCell id="WIyWlLk6GJQsqaUBKTNV-1" parent="WIyWlLk6GJQsqaUBKTNV-0" />
        <mxCell id="DMtq4UFGRVwdkSPB4Go6-1" value="Comedor" style="swimlane;fontStyle=1;align=center;verticalAlign=top;childLayout=stackLayout;horizontal=1;startSize=26;horizontalStack=0;resizeParent=1;resizeParentMax=0;resizeLast=0;collapsible=1;marginBottom=0;whiteSpace=wrap;html=1;" parent="WIyWlLk6GJQsqaUBKTNV-1" vertex="1">
          <mxGeometry x="280" y="-30" width="160" height="104" as="geometry" />
        </mxCell>
        <mxCell id="DMtq4UFGRVwdkSPB4Go6-2" value="- direccion : String&lt;br&gt;- telefono : int" style="text;strokeColor=none;fillColor=none;align=left;verticalAlign=top;spacingLeft=4;spacingRight=4;overflow=hidden;rotatable=0;points=[[0,0.5],[1,0.5]];portConstraint=eastwest;whiteSpace=wrap;html=1;" parent="DMtq4UFGRVwdkSPB4Go6-1" vertex="1">
          <mxGeometry y="26" width="160" height="44" as="geometry" />
        </mxCell>
        <mxCell id="DMtq4UFGRVwdkSPB4Go6-3" value="" style="line;strokeWidth=1;fillColor=none;align=left;verticalAlign=middle;spacingTop=-1;spacingLeft=3;spacingRight=3;rotatable=0;labelPosition=right;points=[];portConstraint=eastwest;strokeColor=inherit;" parent="DMtq4UFGRVwdkSPB4Go6-1" vertex="1">
          <mxGeometry y="70" width="160" height="8" as="geometry" />
        </mxCell>
        <mxCell id="DMtq4UFGRVwdkSPB4Go6-4" value="+ method(type): type" style="text;strokeColor=none;fillColor=none;align=left;verticalAlign=top;spacingLeft=4;spacingRight=4;overflow=hidden;rotatable=0;points=[[0,0.5],[1,0.5]];portConstraint=eastwest;whiteSpace=wrap;html=1;" parent="DMtq4UFGRVwdkSPB4Go6-1" vertex="1">
          <mxGeometry y="78" width="160" height="26" as="geometry" />
        </mxCell>
        <mxCell id="DMtq4UFGRVwdkSPB4Go6-5" value="Plato" style="swimlane;fontStyle=1;align=center;verticalAlign=top;childLayout=stackLayout;horizontal=1;startSize=26;horizontalStack=0;resizeParent=1;resizeParentMax=0;resizeLast=0;collapsible=1;marginBottom=0;whiteSpace=wrap;html=1;" parent="WIyWlLk6GJQsqaUBKTNV-1" vertex="1">
          <mxGeometry x="510" y="210" width="160" height="134" as="geometry" />
        </mxCell>
        <mxCell id="DMtq4UFGRVwdkSPB4Go6-6" value="- nombre : String&lt;br&gt;- precio : Double&lt;br&gt;- dia : DayOfWeek" style="text;strokeColor=none;fillColor=none;align=left;verticalAlign=top;spacingLeft=4;spacingRight=4;overflow=hidden;rotatable=0;points=[[0,0.5],[1,0.5]];portConstraint=eastwest;whiteSpace=wrap;html=1;" parent="DMtq4UFGRVwdkSPB4Go6-5" vertex="1">
          <mxGeometry y="26" width="160" height="74" as="geometry" />
        </mxCell>
        <mxCell id="DMtq4UFGRVwdkSPB4Go6-7" value="" style="line;strokeWidth=1;fillColor=none;align=left;verticalAlign=middle;spacingTop=-1;spacingLeft=3;spacingRight=3;rotatable=0;labelPosition=right;points=[];portConstraint=eastwest;strokeColor=inherit;" parent="DMtq4UFGRVwdkSPB4Go6-5" vertex="1">
          <mxGeometry y="100" width="160" height="8" as="geometry" />
        </mxCell>
        <mxCell id="DMtq4UFGRVwdkSPB4Go6-8" value="+ method(type): type" style="text;strokeColor=none;fillColor=none;align=left;verticalAlign=top;spacingLeft=4;spacingRight=4;overflow=hidden;rotatable=0;points=[[0,0.5],[1,0.5]];portConstraint=eastwest;whiteSpace=wrap;html=1;" parent="DMtq4UFGRVwdkSPB4Go6-5" vertex="1">
          <mxGeometry y="108" width="160" height="26" as="geometry" />
        </mxCell>
        <mxCell id="DMtq4UFGRVwdkSPB4Go6-9" value="Reserva" style="swimlane;fontStyle=1;align=center;verticalAlign=top;childLayout=stackLayout;horizontal=1;startSize=26;horizontalStack=0;resizeParent=1;resizeParentMax=0;resizeLast=0;collapsible=1;marginBottom=0;whiteSpace=wrap;html=1;" parent="WIyWlLk6GJQsqaUBKTNV-1" vertex="1">
          <mxGeometry x="70" y="210" width="160" height="134" as="geometry" />
        </mxCell>
        <mxCell id="DMtq4UFGRVwdkSPB4Go6-10" value="- fecha : Date" style="text;strokeColor=none;fillColor=none;align=left;verticalAlign=top;spacingLeft=4;spacingRight=4;overflow=hidden;rotatable=0;points=[[0,0.5],[1,0.5]];portConstraint=eastwest;whiteSpace=wrap;html=1;" parent="DMtq4UFGRVwdkSPB4Go6-9" vertex="1">
          <mxGeometry y="26" width="160" height="74" as="geometry" />
        </mxCell>
        <mxCell id="DMtq4UFGRVwdkSPB4Go6-11" value="" style="line;strokeWidth=1;fillColor=none;align=left;verticalAlign=middle;spacingTop=-1;spacingLeft=3;spacingRight=3;rotatable=0;labelPosition=right;points=[];portConstraint=eastwest;strokeColor=inherit;" parent="DMtq4UFGRVwdkSPB4Go6-9" vertex="1">
          <mxGeometry y="100" width="160" height="8" as="geometry" />
        </mxCell>
        <mxCell id="DMtq4UFGRVwdkSPB4Go6-12" value="+ method(type): type" style="text;strokeColor=none;fillColor=none;align=left;verticalAlign=top;spacingLeft=4;spacingRight=4;overflow=hidden;rotatable=0;points=[[0,0.5],[1,0.5]];portConstraint=eastwest;whiteSpace=wrap;html=1;" parent="DMtq4UFGRVwdkSPB4Go6-9" vertex="1">
          <mxGeometry y="108" width="160" height="26" as="geometry" />
        </mxCell>
        <mxCell id="DMtq4UFGRVwdkSPB4Go6-13" value="&amp;lt;&amp;lt;abstract&amp;gt;&amp;gt;&lt;br&gt;Cliente" style="swimlane;fontStyle=1;align=center;verticalAlign=top;childLayout=stackLayout;horizontal=1;startSize=40;horizontalStack=0;resizeParent=1;resizeParentMax=0;resizeLast=0;collapsible=1;marginBottom=0;whiteSpace=wrap;html=1;" parent="WIyWlLk6GJQsqaUBKTNV-1" vertex="1">
          <mxGeometry x="140" y="410" width="160" height="148" as="geometry" />
        </mxCell>
        <mxCell id="DMtq4UFGRVwdkSPB4Go6-14" value="- nombre: String&lt;br&gt;- apellido : String" style="text;strokeColor=none;fillColor=none;align=left;verticalAlign=top;spacingLeft=4;spacingRight=4;overflow=hidden;rotatable=0;points=[[0,0.5],[1,0.5]];portConstraint=eastwest;whiteSpace=wrap;html=1;" parent="DMtq4UFGRVwdkSPB4Go6-13" vertex="1">
          <mxGeometry y="40" width="160" height="74" as="geometry" />
        </mxCell>
        <mxCell id="DMtq4UFGRVwdkSPB4Go6-15" value="" style="line;strokeWidth=1;fillColor=none;align=left;verticalAlign=middle;spacingTop=-1;spacingLeft=3;spacingRight=3;rotatable=0;labelPosition=right;points=[];portConstraint=eastwest;strokeColor=inherit;" parent="DMtq4UFGRVwdkSPB4Go6-13" vertex="1">
          <mxGeometry y="114" width="160" height="8" as="geometry" />
        </mxCell>
        <mxCell id="DMtq4UFGRVwdkSPB4Go6-16" value="+ getDescuento() : double" style="text;strokeColor=none;fillColor=none;align=left;verticalAlign=top;spacingLeft=4;spacingRight=4;overflow=hidden;rotatable=0;points=[[0,0.5],[1,0.5]];portConstraint=eastwest;whiteSpace=wrap;html=1;" parent="DMtq4UFGRVwdkSPB4Go6-13" vertex="1">
          <mxGeometry y="122" width="160" height="26" as="geometry" />
        </mxCell>
        <mxCell id="DMtq4UFGRVwdkSPB4Go6-17" value="Profesor" style="swimlane;fontStyle=1;align=center;verticalAlign=top;childLayout=stackLayout;horizontal=1;startSize=40;horizontalStack=0;resizeParent=1;resizeParentMax=0;resizeLast=0;collapsible=1;marginBottom=0;whiteSpace=wrap;html=1;" parent="WIyWlLk6GJQsqaUBKTNV-1" vertex="1">
          <mxGeometry x="-70" y="620" width="160" height="148" as="geometry" />
        </mxCell>
        <mxCell id="DMtq4UFGRVwdkSPB4Go6-18" value="- nombre: String&lt;br&gt;- apellido : String" style="text;strokeColor=none;fillColor=none;align=left;verticalAlign=top;spacingLeft=4;spacingRight=4;overflow=hidden;rotatable=0;points=[[0,0.5],[1,0.5]];portConstraint=eastwest;whiteSpace=wrap;html=1;" parent="DMtq4UFGRVwdkSPB4Go6-17" vertex="1">
          <mxGeometry y="40" width="160" height="74" as="geometry" />
        </mxCell>
        <mxCell id="DMtq4UFGRVwdkSPB4Go6-19" value="" style="line;strokeWidth=1;fillColor=none;align=left;verticalAlign=middle;spacingTop=-1;spacingLeft=3;spacingRight=3;rotatable=0;labelPosition=right;points=[];portConstraint=eastwest;strokeColor=inherit;" parent="DMtq4UFGRVwdkSPB4Go6-17" vertex="1">
          <mxGeometry y="114" width="160" height="8" as="geometry" />
        </mxCell>
        <mxCell id="DMtq4UFGRVwdkSPB4Go6-20" value="+ getDescuento() : double" style="text;strokeColor=none;fillColor=none;align=left;verticalAlign=top;spacingLeft=4;spacingRight=4;overflow=hidden;rotatable=0;points=[[0,0.5],[1,0.5]];portConstraint=eastwest;whiteSpace=wrap;html=1;" parent="DMtq4UFGRVwdkSPB4Go6-17" vertex="1">
          <mxGeometry y="122" width="160" height="26" as="geometry" />
        </mxCell>
        <mxCell id="DMtq4UFGRVwdkSPB4Go6-21" value="Alumno" style="swimlane;fontStyle=1;align=center;verticalAlign=top;childLayout=stackLayout;horizontal=1;startSize=40;horizontalStack=0;resizeParent=1;resizeParentMax=0;resizeLast=0;collapsible=1;marginBottom=0;whiteSpace=wrap;html=1;" parent="WIyWlLk6GJQsqaUBKTNV-1" vertex="1">
          <mxGeometry x="140" y="620" width="160" height="148" as="geometry" />
        </mxCell>
        <mxCell id="DMtq4UFGRVwdkSPB4Go6-22" value="- nombre: String&lt;br&gt;- apellido : String" style="text;strokeColor=none;fillColor=none;align=left;verticalAlign=top;spacingLeft=4;spacingRight=4;overflow=hidden;rotatable=0;points=[[0,0.5],[1,0.5]];portConstraint=eastwest;whiteSpace=wrap;html=1;" parent="DMtq4UFGRVwdkSPB4Go6-21" vertex="1">
          <mxGeometry y="40" width="160" height="74" as="geometry" />
        </mxCell>
        <mxCell id="DMtq4UFGRVwdkSPB4Go6-23" value="" style="line;strokeWidth=1;fillColor=none;align=left;verticalAlign=middle;spacingTop=-1;spacingLeft=3;spacingRight=3;rotatable=0;labelPosition=right;points=[];portConstraint=eastwest;strokeColor=inherit;" parent="DMtq4UFGRVwdkSPB4Go6-21" vertex="1">
          <mxGeometry y="114" width="160" height="8" as="geometry" />
        </mxCell>
        <mxCell id="DMtq4UFGRVwdkSPB4Go6-24" value="+ getDescuento() : double" style="text;strokeColor=none;fillColor=none;align=left;verticalAlign=top;spacingLeft=4;spacingRight=4;overflow=hidden;rotatable=0;points=[[0,0.5],[1,0.5]];portConstraint=eastwest;whiteSpace=wrap;html=1;" parent="DMtq4UFGRVwdkSPB4Go6-21" vertex="1">
          <mxGeometry y="122" width="160" height="26" as="geometry" />
        </mxCell>
        <mxCell id="DMtq4UFGRVwdkSPB4Go6-25" value="Particular" style="swimlane;fontStyle=1;align=center;verticalAlign=top;childLayout=stackLayout;horizontal=1;startSize=40;horizontalStack=0;resizeParent=1;resizeParentMax=0;resizeLast=0;collapsible=1;marginBottom=0;whiteSpace=wrap;html=1;" parent="WIyWlLk6GJQsqaUBKTNV-1" vertex="1">
          <mxGeometry x="360" y="620" width="160" height="148" as="geometry" />
        </mxCell>
        <mxCell id="DMtq4UFGRVwdkSPB4Go6-26" value="- nombre: String&lt;br&gt;- apellido : String" style="text;strokeColor=none;fillColor=none;align=left;verticalAlign=top;spacingLeft=4;spacingRight=4;overflow=hidden;rotatable=0;points=[[0,0.5],[1,0.5]];portConstraint=eastwest;whiteSpace=wrap;html=1;" parent="DMtq4UFGRVwdkSPB4Go6-25" vertex="1">
          <mxGeometry y="40" width="160" height="74" as="geometry" />
        </mxCell>
        <mxCell id="DMtq4UFGRVwdkSPB4Go6-27" value="" style="line;strokeWidth=1;fillColor=none;align=left;verticalAlign=middle;spacingTop=-1;spacingLeft=3;spacingRight=3;rotatable=0;labelPosition=right;points=[];portConstraint=eastwest;strokeColor=inherit;" parent="DMtq4UFGRVwdkSPB4Go6-25" vertex="1">
          <mxGeometry y="114" width="160" height="8" as="geometry" />
        </mxCell>
        <mxCell id="DMtq4UFGRVwdkSPB4Go6-28" value="+ getDescuento() : double" style="text;strokeColor=none;fillColor=none;align=left;verticalAlign=top;spacingLeft=4;spacingRight=4;overflow=hidden;rotatable=0;points=[[0,0.5],[1,0.5]];portConstraint=eastwest;whiteSpace=wrap;html=1;" parent="DMtq4UFGRVwdkSPB4Go6-25" vertex="1">
          <mxGeometry y="122" width="160" height="26" as="geometry" />
        </mxCell>
        <mxCell id="DMtq4UFGRVwdkSPB4Go6-29" value="Extends" style="endArrow=block;endSize=16;endFill=0;html=1;rounded=0;exitX=0.5;exitY=0;exitDx=0;exitDy=0;" parent="WIyWlLk6GJQsqaUBKTNV-1" source="DMtq4UFGRVwdkSPB4Go6-17" target="DMtq4UFGRVwdkSPB4Go6-16" edge="1">
          <mxGeometry width="160" relative="1" as="geometry">
            <mxPoint x="330" y="410" as="sourcePoint" />
            <mxPoint x="490" y="410" as="targetPoint" />
          </mxGeometry>
        </mxCell>
        <mxCell id="DMtq4UFGRVwdkSPB4Go6-30" value="Extends" style="endArrow=block;endSize=16;endFill=0;html=1;rounded=0;exitX=0.5;exitY=0;exitDx=0;exitDy=0;" parent="WIyWlLk6GJQsqaUBKTNV-1" source="DMtq4UFGRVwdkSPB4Go6-21" target="DMtq4UFGRVwdkSPB4Go6-16" edge="1">
          <mxGeometry width="160" relative="1" as="geometry">
            <mxPoint x="20" y="630" as="sourcePoint" />
            <mxPoint x="194" y="568" as="targetPoint" />
          </mxGeometry>
        </mxCell>
        <mxCell id="DMtq4UFGRVwdkSPB4Go6-31" value="Extends" style="endArrow=block;endSize=16;endFill=0;html=1;rounded=0;exitX=0.5;exitY=0;exitDx=0;exitDy=0;" parent="WIyWlLk6GJQsqaUBKTNV-1" source="DMtq4UFGRVwdkSPB4Go6-25" target="DMtq4UFGRVwdkSPB4Go6-16" edge="1">
          <mxGeometry width="160" relative="1" as="geometry">
            <mxPoint x="230" y="630" as="sourcePoint" />
            <mxPoint x="230" y="568" as="targetPoint" />
          </mxGeometry>
        </mxCell>
        <mxCell id="DMtq4UFGRVwdkSPB4Go6-32" value="-platos" style="endArrow=open;endSize=12;dashed=1;html=1;rounded=0;exitX=1;exitY=0.5;exitDx=0;exitDy=0;entryX=0;entryY=0.5;entryDx=0;entryDy=0;" parent="WIyWlLk6GJQsqaUBKTNV-1" source="DMtq4UFGRVwdkSPB4Go6-10" target="DMtq4UFGRVwdkSPB4Go6-6" edge="1">
          <mxGeometry width="160" relative="1" as="geometry">
            <mxPoint x="270" y="420" as="sourcePoint" />
            <mxPoint x="430" y="420" as="targetPoint" />
          </mxGeometry>
        </mxCell>
        <mxCell id="DMtq4UFGRVwdkSPB4Go6-33" value="- cliente" style="endArrow=open;endSize=12;dashed=1;html=1;rounded=0;exitX=0;exitY=0.5;exitDx=0;exitDy=0;entryX=0;entryY=0.5;entryDx=0;entryDy=0;" parent="WIyWlLk6GJQsqaUBKTNV-1" source="DMtq4UFGRVwdkSPB4Go6-10" target="DMtq4UFGRVwdkSPB4Go6-14" edge="1">
          <mxGeometry width="160" relative="1" as="geometry">
            <mxPoint x="240" y="283" as="sourcePoint" />
            <mxPoint x="520" y="283" as="targetPoint" />
            <Array as="points">
              <mxPoint x="-40" y="273" />
              <mxPoint x="-40" y="487" />
            </Array>
          </mxGeometry>
        </mxCell>
        <mxCell id="DMtq4UFGRVwdkSPB4Go6-35" value="- reservas" style="endArrow=open;endSize=12;dashed=1;html=1;rounded=0;exitX=0;exitY=0.5;exitDx=0;exitDy=0;entryX=0.5;entryY=0;entryDx=0;entryDy=0;" parent="WIyWlLk6GJQsqaUBKTNV-1" source="DMtq4UFGRVwdkSPB4Go6-2" target="DMtq4UFGRVwdkSPB4Go6-9" edge="1">
          <mxGeometry width="160" relative="1" as="geometry">
            <mxPoint x="270" y="120" as="sourcePoint" />
            <mxPoint x="430" y="120" as="targetPoint" />
            <Array as="points">
              <mxPoint x="150" y="20" />
            </Array>
          </mxGeometry>
        </mxCell>
      </root>
    </mxGraphModel>
  </diagram>
</mxfile>
